<?xml version="1.0" encoding="UTF-8" standalone="no"?>
<!DOCTYPE svg PUBLIC "-//W3C//DTD SVG 1.1//EN" "http://www.w3.org/Graphics/SVG/1.1/DTD/svg11.dtd">
<svg width="100%" height="100%" viewBox="0 0 649 146" version="1.1" xmlns="http://www.w3.org/2000/svg" xmlns:xlink="http://www.w3.org/1999/xlink" xml:space="preserve" xmlns:serif="http://www.serif.com/" style="fill-rule:evenodd;clip-rule:evenodd;stroke-linejoin:round;stroke-miterlimit:1.41421;">
    <rect id="ArtBoard1" x="0" y="0" width="648.813" height="145.19" style="fill:none;"/>
    <path d="M213.552,110.619L213.552,128.99L216.259,128.99L216.259,110.619L223.041,110.619L223.041,108.3L206.771,108.3L206.771,110.619L213.552,110.619Z" style="fill:white;fill-rule:nonzero;"/>
    <path d="M222.186,114.009L222.186,128.99L224.608,128.99L224.608,122.326C224.608,121.36 224.703,120.505 224.893,119.761C225.083,119.017 225.387,118.385 225.805,117.863C226.223,117.341 226.773,116.945 227.457,116.675C228.141,116.404 228.967,116.269 229.936,116.269L229.936,113.661C228.625,113.623 227.543,113.893 226.688,114.473C225.833,115.052 225.111,115.95 224.522,117.168L224.465,117.168L224.465,114.009L222.186,114.009Z" style="fill:white;fill-rule:nonzero;"/>
    <path d="M244.81,128.933C244.392,129.184 243.813,129.309 243.072,129.309C242.445,129.309 241.946,129.131 241.576,128.773C241.205,128.416 241.02,127.831 241.02,127.02C240.355,127.831 239.581,128.416 238.698,128.773C237.815,129.131 236.86,129.309 235.834,129.309C235.17,129.309 234.538,129.232 233.94,129.077C233.341,128.923 232.824,128.681 232.387,128.353C231.95,128.025 231.603,127.595 231.347,127.063C231.09,126.532 230.962,125.89 230.962,125.136C230.962,124.286 231.104,123.591 231.389,123.05C231.674,122.509 232.049,122.07 232.515,121.732C232.98,121.393 233.512,121.137 234.111,120.964C234.709,120.79 235.322,120.645 235.948,120.529C236.613,120.394 237.245,120.292 237.843,120.225C238.442,120.157 238.969,120.06 239.425,119.935C239.881,119.809 240.241,119.626 240.507,119.384C240.773,119.143 240.906,118.79 240.906,118.327C240.906,117.786 240.807,117.351 240.607,117.023C240.408,116.694 240.151,116.443 239.838,116.269C239.524,116.095 239.173,115.979 238.784,115.921C238.394,115.863 238.009,115.835 237.63,115.835C236.604,115.835 235.749,116.033 235.065,116.429C234.381,116.825 234.011,117.573 233.954,118.674L231.532,118.674C231.57,117.747 231.76,116.965 232.102,116.327C232.444,115.69 232.9,115.173 233.469,114.777C234.039,114.381 234.69,114.096 235.421,113.922C236.153,113.748 236.936,113.661 237.772,113.661C238.437,113.661 239.097,113.709 239.752,113.806C240.408,113.903 241.001,114.101 241.533,114.4C242.065,114.7 242.492,115.12 242.815,115.661C243.138,116.202 243.3,116.907 243.3,117.776L243.3,125.484C243.3,126.064 243.333,126.489 243.4,126.759C243.466,127.03 243.689,127.165 244.069,127.165C244.278,127.165 244.525,127.117 244.81,127.02L244.81,128.933ZM240.878,121.253C240.574,121.485 240.175,121.654 239.681,121.76C239.187,121.867 238.67,121.954 238.128,122.021C237.587,122.089 237.041,122.166 236.49,122.253C235.939,122.34 235.445,122.48 235.008,122.673C234.571,122.866 234.215,123.142 233.94,123.499C233.664,123.857 233.526,124.344 233.526,124.963C233.526,125.368 233.607,125.711 233.769,125.991C233.93,126.271 234.139,126.498 234.395,126.672C234.652,126.846 234.951,126.972 235.293,127.049C235.635,127.126 235.996,127.165 236.376,127.165C237.174,127.165 237.857,127.054 238.427,126.832C238.997,126.609 239.463,126.329 239.824,125.991C240.184,125.653 240.45,125.286 240.621,124.89C240.792,124.494 240.878,124.122 240.878,123.774L240.878,121.253Z" style="fill:white;fill-rule:nonzero;"/>
    <path d="M257.062,118.819L259.57,118.819C259.475,117.931 259.247,117.163 258.886,116.516C258.525,115.868 258.064,115.332 257.504,114.907C256.944,114.482 256.298,114.168 255.566,113.965C254.835,113.763 254.051,113.661 253.216,113.661C252.057,113.661 251.041,113.869 250.167,114.284C249.293,114.7 248.566,115.269 247.987,115.994C247.408,116.718 246.975,117.568 246.691,118.544C246.406,119.52 246.263,120.568 246.263,121.688C246.263,122.809 246.41,123.837 246.705,124.774C246.999,125.711 247.436,126.518 248.016,127.194C248.595,127.87 249.317,128.392 250.181,128.759C251.045,129.126 252.038,129.309 253.159,129.309C255.039,129.309 256.526,128.807 257.618,127.802C258.71,126.798 259.389,125.368 259.655,123.514L257.176,123.514C257.024,124.673 256.611,125.571 255.937,126.209C255.262,126.846 254.327,127.165 253.13,127.165C252.37,127.165 251.715,127.01 251.164,126.701C250.613,126.392 250.167,125.982 249.825,125.47C249.483,124.958 249.231,124.373 249.07,123.716C248.908,123.06 248.828,122.384 248.828,121.688C248.828,120.935 248.904,120.205 249.056,119.5C249.208,118.795 249.459,118.172 249.811,117.631C250.162,117.09 250.632,116.656 251.221,116.327C251.81,115.999 252.541,115.835 253.415,115.835C254.441,115.835 255.258,116.095 255.866,116.617C256.473,117.139 256.872,117.873 257.062,118.819Z" style="fill:white;fill-rule:nonzero;"/>
    <path d="M262.505,108.3L262.505,128.99L264.927,128.99L264.927,123.311L267.206,121.166L272.249,128.99L275.327,128.99L269.058,119.457L274.899,114.009L271.651,114.009L264.927,120.558L264.927,108.3L262.505,108.3Z" style="fill:white;fill-rule:nonzero;"/>
    <path d="M290.856,130.99C290.571,131.724 290.291,132.342 290.015,132.845C289.74,133.347 289.436,133.757 289.104,134.076C288.771,134.395 288.401,134.627 287.992,134.772C287.584,134.916 287.114,134.989 286.582,134.989C286.297,134.989 286.012,134.97 285.727,134.931C285.442,134.892 285.167,134.825 284.901,134.728L284.901,132.468C285.11,132.564 285.352,132.647 285.627,132.714C285.903,132.782 286.135,132.816 286.325,132.816C286.819,132.816 287.232,132.695 287.565,132.453C287.897,132.212 288.149,131.869 288.32,131.425L289.317,128.904L283.476,114.009L286.211,114.009L290.514,126.267L290.571,126.267L294.703,114.009L297.267,114.009L290.856,130.99Z" style="fill:white;fill-rule:nonzero;"/>
    <path d="M301.085,121.514C301.085,120.606 301.204,119.8 301.441,119.095C301.679,118.389 302.007,117.795 302.424,117.312C302.842,116.829 303.331,116.462 303.892,116.211C304.452,115.96 305.046,115.835 305.673,115.835C306.3,115.835 306.893,115.96 307.454,116.211C308.014,116.462 308.503,116.829 308.921,117.312C309.339,117.795 309.667,118.389 309.904,119.095C310.142,119.8 310.26,120.606 310.26,121.514C310.26,122.422 310.142,123.229 309.904,123.934C309.667,124.639 309.339,125.228 308.921,125.701C308.503,126.175 308.014,126.537 307.454,126.788C306.893,127.039 306.3,127.165 305.673,127.165C305.046,127.165 304.452,127.039 303.892,126.788C303.331,126.537 302.842,126.175 302.424,125.701C302.007,125.228 301.679,124.639 301.441,123.934C301.204,123.229 301.085,122.422 301.085,121.514ZM298.521,121.514C298.521,122.615 298.673,123.639 298.977,124.586C299.281,125.532 299.737,126.358 300.344,127.063C300.952,127.769 301.703,128.319 302.595,128.715C303.488,129.111 304.514,129.309 305.673,129.309C306.85,129.309 307.881,129.111 308.764,128.715C309.648,128.319 310.393,127.769 311.001,127.063C311.609,126.358 312.065,125.532 312.369,124.586C312.673,123.639 312.825,122.615 312.825,121.514C312.825,120.413 312.673,119.384 312.369,118.428C312.065,117.472 311.609,116.641 311.001,115.936C310.393,115.231 309.648,114.675 308.764,114.27C307.881,113.864 306.85,113.661 305.673,113.661C304.514,113.661 303.488,113.864 302.595,114.27C301.703,114.675 300.952,115.231 300.344,115.936C299.737,116.641 299.281,117.472 298.977,118.428C298.673,119.384 298.521,120.413 298.521,121.514Z" style="fill:white;fill-rule:nonzero;"/>
    <path d="M327.869,128.99L327.869,114.009L325.447,114.009L325.447,122.47C325.447,123.147 325.357,123.77 325.177,124.34C324.996,124.909 324.726,125.407 324.365,125.832C324.004,126.257 323.553,126.585 323.011,126.817C322.47,127.049 321.829,127.165 321.088,127.165C320.157,127.165 319.426,126.894 318.894,126.353C318.362,125.813 318.096,125.078 318.096,124.151L318.096,114.009L315.674,114.009L315.674,123.861C315.674,124.673 315.755,125.412 315.916,126.078C316.078,126.745 316.358,127.319 316.757,127.802C317.156,128.285 317.678,128.657 318.324,128.918C318.97,129.179 319.777,129.309 320.746,129.309C321.829,129.309 322.769,129.092 323.567,128.657C324.365,128.223 325.02,127.542 325.533,126.614L325.59,126.614L325.59,128.99L327.869,128.99Z" style="fill:white;fill-rule:nonzero;"/>
    <path d="M331.431,114.009L331.431,128.99L333.853,128.99L333.853,122.326C333.853,121.36 333.948,120.505 334.138,119.761C334.328,119.017 334.632,118.385 335.05,117.863C335.468,117.341 336.019,116.945 336.702,116.675C337.386,116.404 338.213,116.269 339.181,116.269L339.181,113.661C337.871,113.623 336.788,113.893 335.933,114.473C335.078,115.052 334.356,115.95 333.768,117.168L333.711,117.168L333.711,114.009L331.431,114.009Z" style="fill:white;fill-rule:nonzero;"/>
    <path d="M363.515,128.99L368.217,114.009L365.709,114.009L362.404,126.267L362.347,126.267L359.27,114.009L356.62,114.009L353.656,126.267L353.599,126.267L350.266,114.009L347.587,114.009L352.317,128.99L354.939,128.99L357.902,117.081L357.959,117.081L360.951,128.99L363.515,128.99Z" style="fill:white;fill-rule:nonzero;"/>
    <path d="M372.291,121.514C372.291,120.606 372.41,119.8 372.647,119.095C372.885,118.389 373.213,117.795 373.63,117.312C374.048,116.829 374.538,116.462 375.098,116.211C375.658,115.96 376.252,115.835 376.879,115.835C377.506,115.835 378.099,115.96 378.66,116.211C379.22,116.462 379.709,116.829 380.127,117.312C380.545,117.795 380.873,118.389 381.11,119.095C381.348,119.8 381.466,120.606 381.466,121.514C381.466,122.422 381.348,123.229 381.11,123.934C380.873,124.639 380.545,125.228 380.127,125.701C379.709,126.175 379.22,126.537 378.66,126.788C378.099,127.039 377.506,127.165 376.879,127.165C376.252,127.165 375.658,127.039 375.098,126.788C374.538,126.537 374.048,126.175 373.63,125.701C373.213,125.228 372.885,124.639 372.647,123.934C372.41,123.229 372.291,122.422 372.291,121.514ZM369.727,121.514C369.727,122.615 369.879,123.639 370.183,124.586C370.487,125.532 370.943,126.358 371.55,127.063C372.158,127.769 372.909,128.319 373.801,128.715C374.694,129.111 375.72,129.309 376.879,129.309C378.056,129.309 379.087,129.111 379.97,128.715C380.854,128.319 381.599,127.769 382.207,127.063C382.815,126.358 383.271,125.532 383.575,124.586C383.879,123.639 384.031,122.615 384.031,121.514C384.031,120.413 383.879,119.384 383.575,118.428C383.271,117.472 382.815,116.641 382.207,115.936C381.599,115.231 380.854,114.675 379.97,114.27C379.087,113.864 378.056,113.661 376.879,113.661C375.72,113.661 374.694,113.864 373.801,114.27C372.909,114.675 372.158,115.231 371.55,115.936C370.943,116.641 370.487,117.472 370.183,118.428C369.879,119.384 369.727,120.413 369.727,121.514Z" style="fill:white;fill-rule:nonzero;"/>
    <path d="M386.795,114.009L386.795,128.99L389.217,128.99L389.217,122.326C389.217,121.36 389.312,120.505 389.502,119.761C389.691,119.017 389.995,118.385 390.413,117.863C390.831,117.341 391.382,116.945 392.066,116.675C392.75,116.404 393.576,116.269 394.545,116.269L394.545,113.661C393.234,113.623 392.151,113.893 391.297,114.473C390.442,115.052 389.72,115.95 389.131,117.168L389.074,117.168L389.074,114.009L386.795,114.009Z" style="fill:white;fill-rule:nonzero;"/>
    <path d="M396.511,108.3L396.511,128.99L398.933,128.99L398.933,123.311L401.212,121.166L406.256,128.99L409.333,128.99L403.065,119.457L408.906,114.009L405.657,114.009L398.933,120.558L398.933,108.3L396.511,108.3Z" style="fill:white;fill-rule:nonzero;"/>
    <path d="M413.721,111.314L413.721,108.3L411.299,108.3L411.299,111.314L413.721,111.314ZM411.299,114.009L411.299,128.99L413.721,128.99L413.721,114.009L411.299,114.009Z" style="fill:white;fill-rule:nonzero;"/>
    <path d="M417.482,114.009L417.482,128.99L419.904,128.99L419.904,120.529C419.904,119.853 419.995,119.23 420.175,118.66C420.356,118.09 420.626,117.593 420.987,117.168C421.348,116.742 421.799,116.414 422.341,116.182C422.882,115.95 423.523,115.835 424.264,115.835C425.195,115.835 425.926,116.105 426.458,116.646C426.99,117.187 427.256,117.921 427.256,118.848L427.256,128.99L429.678,128.99L429.678,119.138C429.678,118.327 429.597,117.588 429.436,116.921C429.274,116.255 428.994,115.68 428.595,115.197C428.196,114.714 427.674,114.337 427.028,114.067C426.382,113.796 425.575,113.661 424.606,113.661C422.421,113.661 420.826,114.569 419.819,116.385L419.762,116.385L419.762,114.009L417.482,114.009Z" style="fill:white;fill-rule:nonzero;"/>
    <path d="M446.033,127.715L446.033,114.009L443.754,114.009L443.754,116.153L443.725,116.153C443.288,115.323 442.68,114.7 441.902,114.284C441.123,113.869 440.268,113.661 439.337,113.661C438.064,113.661 436.991,113.907 436.117,114.4C435.244,114.893 434.541,115.521 434.009,116.284C433.477,117.047 433.097,117.897 432.869,118.834C432.641,119.771 432.527,120.683 432.527,121.572C432.527,122.596 432.665,123.567 432.94,124.484C433.216,125.402 433.629,126.204 434.18,126.89C434.731,127.575 435.415,128.121 436.231,128.527C437.048,128.933 438.007,129.135 439.109,129.135C440.059,129.135 440.957,128.918 441.802,128.483C442.647,128.049 443.279,127.368 443.697,126.44L443.754,126.44L443.754,127.426C443.754,128.256 443.673,129.019 443.512,129.715C443.35,130.41 443.089,131.004 442.728,131.497C442.367,131.99 441.911,132.376 441.36,132.656C440.809,132.936 440.135,133.076 439.337,133.076C438.938,133.076 438.52,133.033 438.083,132.946C437.647,132.859 437.243,132.719 436.872,132.526C436.502,132.333 436.189,132.081 435.932,131.772C435.676,131.463 435.538,131.087 435.519,130.642L433.097,130.642C433.135,131.454 433.344,132.139 433.724,132.7C434.104,133.26 434.583,133.714 435.163,134.062C435.742,134.409 436.388,134.66 437.1,134.815C437.813,134.97 438.511,135.047 439.195,135.047C441.55,135.047 443.279,134.438 444.381,133.221C445.482,132.004 446.033,130.169 446.033,127.715ZM439.252,126.991C438.454,126.991 437.789,126.822 437.257,126.484C436.725,126.146 436.298,125.701 435.975,125.151C435.652,124.6 435.424,123.987 435.291,123.311C435.158,122.635 435.092,121.959 435.092,121.282C435.092,120.568 435.172,119.882 435.334,119.225C435.495,118.568 435.752,117.989 436.103,117.486C436.455,116.984 436.906,116.583 437.457,116.284C438.007,115.984 438.672,115.835 439.451,115.835C440.211,115.835 440.857,115.989 441.389,116.298C441.921,116.607 442.353,117.018 442.685,117.53C443.018,118.042 443.26,118.616 443.412,119.254C443.564,119.891 443.64,120.539 443.64,121.195C443.64,121.891 443.559,122.586 443.398,123.282C443.236,123.977 442.984,124.6 442.642,125.151C442.301,125.701 441.849,126.146 441.289,126.484C440.729,126.822 440.05,126.991 439.252,126.991Z" style="fill:white;fill-rule:nonzero;"/>
    <path d="M457.602,108.3L457.602,128.99L460.024,128.99L460.024,120.529C460.024,119.853 460.114,119.23 460.294,118.66C460.475,118.09 460.746,117.593 461.106,117.168C461.467,116.742 461.919,116.414 462.46,116.182C463.001,115.95 463.642,115.835 464.383,115.835C465.314,115.835 466.045,116.105 466.577,116.646C467.109,117.187 467.375,117.921 467.375,118.848L467.375,128.99L469.797,128.99L469.797,119.138C469.797,118.327 469.716,117.588 469.555,116.921C469.393,116.255 469.113,115.68 468.714,115.197C468.315,114.714 467.793,114.337 467.147,114.067C466.501,113.796 465.694,113.661 464.725,113.661C464.288,113.661 463.837,113.709 463.372,113.806C462.906,113.903 462.46,114.052 462.032,114.255C461.605,114.458 461.22,114.719 460.878,115.038C460.537,115.356 460.271,115.748 460.081,116.211L460.024,116.211L460.024,108.3L457.602,108.3Z" style="fill:white;fill-rule:nonzero;"/>
    <path d="M475.211,121.514C475.211,120.606 475.33,119.8 475.567,119.095C475.804,118.389 476.132,117.795 476.55,117.312C476.968,116.829 477.457,116.462 478.018,116.211C478.578,115.96 479.172,115.835 479.798,115.835C480.425,115.835 481.019,115.96 481.579,116.211C482.14,116.462 482.629,116.829 483.047,117.312C483.465,117.795 483.792,118.389 484.03,119.095C484.267,119.8 484.386,120.606 484.386,121.514C484.386,122.422 484.267,123.229 484.03,123.934C483.792,124.639 483.465,125.228 483.047,125.701C482.629,126.175 482.14,126.537 481.579,126.788C481.019,127.039 480.425,127.165 479.798,127.165C479.172,127.165 478.578,127.039 478.018,126.788C477.457,126.537 476.968,126.175 476.55,125.701C476.132,125.228 475.804,124.639 475.567,123.934C475.33,123.229 475.211,122.422 475.211,121.514ZM472.646,121.514C472.646,122.615 472.798,123.639 473.102,124.586C473.406,125.532 473.862,126.358 474.47,127.063C475.078,127.769 475.828,128.319 476.721,128.715C477.614,129.111 478.64,129.309 479.798,129.309C480.976,129.309 482.007,129.111 482.89,128.715C483.773,128.319 484.519,127.769 485.127,127.063C485.735,126.358 486.19,125.532 486.494,124.586C486.798,123.639 486.95,122.615 486.95,121.514C486.95,120.413 486.798,119.384 486.494,118.428C486.19,117.472 485.735,116.641 485.127,115.936C484.519,115.231 483.773,114.675 482.89,114.27C482.007,113.864 480.976,113.661 479.798,113.661C478.64,113.661 477.614,113.864 476.721,114.27C475.828,114.675 475.078,115.231 474.47,115.936C473.862,116.641 473.406,117.472 473.102,118.428C472.798,119.384 472.646,120.413 472.646,121.514Z" style="fill:white;fill-rule:nonzero;"/>
    <path d="M501.995,128.99L501.995,114.009L499.573,114.009L499.573,122.47C499.573,123.147 499.483,123.77 499.302,124.34C499.122,124.909 498.851,125.407 498.49,125.832C498.129,126.257 497.678,126.585 497.137,126.817C496.595,127.049 495.954,127.165 495.214,127.165C494.283,127.165 493.551,126.894 493.02,126.353C492.488,125.813 492.222,125.078 492.222,124.151L492.222,114.009L489.8,114.009L489.8,123.861C489.8,124.673 489.88,125.412 490.042,126.078C490.203,126.745 490.484,127.319 490.882,127.802C491.281,128.285 491.804,128.657 492.45,128.918C493.095,129.179 493.903,129.309 494.872,129.309C495.954,129.309 496.895,129.092 497.692,128.657C498.49,128.223 499.146,127.542 499.659,126.614L499.716,126.614L499.716,128.99L501.995,128.99Z" style="fill:white;fill-rule:nonzero;"/>
    <path d="M505.557,114.009L505.557,128.99L507.979,128.99L507.979,122.326C507.979,121.36 508.074,120.505 508.264,119.761C508.454,119.017 508.758,118.385 509.175,117.863C509.593,117.341 510.144,116.945 510.828,116.675C511.512,116.404 512.338,116.269 513.307,116.269L513.307,113.661C511.996,113.623 510.914,113.893 510.059,114.473C509.204,115.052 508.482,115.95 507.893,117.168L507.836,117.168L507.836,114.009L505.557,114.009Z" style="fill:white;fill-rule:nonzero;"/>
    <path d="M516.612,124.267L514.19,124.267C514.228,125.194 514.418,125.982 514.76,126.629C515.102,127.276 515.558,127.798 516.128,128.194C516.698,128.59 517.353,128.875 518.094,129.048C518.835,129.222 519.614,129.309 520.431,129.309C521.171,129.309 521.917,129.237 522.667,129.092C523.418,128.947 524.092,128.691 524.69,128.324C525.289,127.957 525.773,127.474 526.144,126.875C526.514,126.276 526.699,125.523 526.699,124.615C526.699,123.9 526.561,123.301 526.286,122.818C526.011,122.335 525.65,121.934 525.203,121.616C524.757,121.297 524.244,121.041 523.665,120.848C523.085,120.655 522.492,120.49 521.884,120.355C521.314,120.22 520.744,120.089 520.174,119.964C519.604,119.838 519.091,119.684 518.635,119.5C518.18,119.317 517.804,119.085 517.51,118.805C517.215,118.525 517.068,118.172 517.068,117.747C517.068,117.361 517.163,117.047 517.353,116.805C517.543,116.564 517.79,116.371 518.094,116.226C518.398,116.081 518.735,115.979 519.106,115.921C519.476,115.863 519.842,115.835 520.203,115.835C520.602,115.835 520.996,115.878 521.385,115.965C521.775,116.052 522.131,116.192 522.454,116.385C522.777,116.578 523.042,116.834 523.251,117.153C523.46,117.472 523.584,117.873 523.622,118.356L526.044,118.356C525.987,117.448 525.797,116.689 525.474,116.081C525.151,115.472 524.719,114.989 524.177,114.632C523.636,114.275 523.014,114.023 522.311,113.879C521.608,113.734 520.839,113.661 520.003,113.661C519.357,113.661 518.707,113.743 518.051,113.907C517.396,114.072 516.807,114.323 516.285,114.661C515.762,114.999 515.335,115.438 515.002,115.979C514.67,116.52 514.504,117.168 514.504,117.921C514.504,118.887 514.741,119.64 515.216,120.181C515.691,120.722 516.285,121.142 516.997,121.442C517.709,121.741 518.483,121.973 519.319,122.137C520.155,122.301 520.929,122.485 521.642,122.688C522.354,122.891 522.947,123.156 523.422,123.485C523.897,123.813 524.135,124.296 524.135,124.934C524.135,125.397 524.021,125.779 523.793,126.078C523.565,126.378 523.275,126.605 522.924,126.759C522.572,126.914 522.188,127.02 521.77,127.078C521.352,127.136 520.953,127.165 520.573,127.165C520.079,127.165 519.599,127.117 519.134,127.02C518.669,126.923 518.251,126.764 517.88,126.542C517.51,126.32 517.211,126.02 516.983,125.644C516.755,125.267 516.631,124.808 516.612,124.267Z" style="fill:white;fill-rule:nonzero;"/>
    <path d="M98.937,72.249C99.864,70.001 109.293,46.097 99.535,29.205C99.337,28.861 99.132,28.523 98.917,28.19C109.611,11.341 136.075,8.179 136.075,8.179C136.075,8.179 146.652,32.864 137.206,50.558L136.679,50.543C116.185,50.282 99.288,72.253 99.288,72.253L99.373,72.363L99.065,72.408C99.237,72.623 99.383,72.808 99.502,72.96L99.617,72.679C102.007,75.793 117.308,94.669 136.114,94.908C136.696,94.916 137.276,94.905 137.847,94.875C146.967,112.628 136.258,137.047 136.258,137.047C136.258,137.047 110.219,133.711 99.514,117.103L99.965,116.375C110.479,98.79 99.949,73.155 99.949,73.155L99.68,73.191C99.81,73.362 99.877,73.453 99.877,73.453C99.877,73.453 99.511,73.931 98.816,74.743C99.043,74.114 99.242,73.604 99.393,73.228C95.43,73.743 71.488,77.51 61.858,93.615C61.557,94.119 61.273,94.63 61.009,95.144C41.225,93.884 25.66,72.59 25.66,72.59C25.66,72.59 41.334,52.161 60.819,50.901L61.09,51.389C71.338,69.13 98.868,72.419 98.868,72.419L98.915,72.301L98.858,72.152L98.937,72.249ZM98.816,74.743C96.384,81.349 90.373,101.067 98.66,115.697C98.932,116.178 99.216,116.648 99.514,117.103C88.681,134.04 61.875,136.834 61.875,136.834C61.875,136.834 51.94,112.648 61.009,95.144C61.51,95.18 62.009,95.199 62.51,95.205C79.984,95.408 94.825,79.452 98.816,74.743ZM137.206,50.558C157.454,51.188 173.505,73.198 173.505,73.198C173.505,73.198 157.555,93.938 137.847,94.875C137.67,94.524 137.485,94.18 137.292,93.84C127.195,76.013 99.694,72.49 99.694,72.49L99.617,72.679L99.373,72.363C102.845,71.873 127.233,67.854 136.742,51.393L137.206,50.558ZM60.819,50.901C51.039,33.189 61.757,8.175 61.757,8.175C61.757,8.175 88.231,11.338 98.917,28.19C98.704,28.52 98.497,28.862 98.297,29.209C88.663,45.885 97.731,69.395 98.858,72.152C94.989,67.365 80.515,51.042 63.027,50.839C62.286,50.83 61.55,50.85 60.819,50.901Z" style="fill:white;"/>
    <g transform="matrix(6.75013,0,0,6.75013,-2008.72,-5712.85)">
        <g transform="matrix(0.98,0,0,1,6.54166,0)">
            <path d="M330.482,858.707C330.817,858.707 331.153,858.654 331.489,858.549L331.489,859.586C331.337,859.652 331.141,859.708 330.9,859.753C330.66,859.798 330.411,859.82 330.153,859.82C328.849,859.82 328.196,859.133 328.196,857.758L328.196,854.265L327.312,854.265L327.312,853.656L328.261,853.152L328.73,851.781L329.579,851.781L329.579,853.222L331.425,853.222L331.425,854.265L329.579,854.265L329.579,857.734C329.579,858.066 329.662,858.311 329.828,858.469C329.994,858.628 330.212,858.707 330.482,858.707Z" style="fill:rgb(255,255,254);fill-rule:nonzero;"/>
            <path d="M334.161,859.703L332.784,859.703L332.784,853.222L334.161,853.222L334.161,859.703ZM332.702,851.506C332.702,851.26 332.77,851.07 332.904,850.937C333.039,850.804 333.232,850.738 333.482,850.738C333.724,850.738 333.912,850.804 334.047,850.937C334.182,851.07 334.249,851.26 334.249,851.506C334.249,851.74 334.182,851.925 334.047,852.059C333.912,852.194 333.724,852.261 333.482,852.261C333.232,852.261 333.039,852.194 332.904,852.059C332.77,851.925 332.702,851.74 332.702,851.506Z" style="fill:rgb(255,255,254);fill-rule:nonzero;"/>
            <path d="M341.591,859.703L340.208,859.703L340.208,855.707C340.208,855.211 340.114,854.841 339.927,854.596C339.739,854.352 339.446,854.23 339.048,854.23C338.517,854.23 338.127,854.403 337.879,854.749C337.631,855.094 337.507,855.67 337.507,856.474L337.507,859.703L336.13,859.703L336.13,853.222L337.208,853.222L337.401,854.072L337.472,854.072C337.651,853.763 337.912,853.525 338.254,853.357C338.596,853.189 338.972,853.105 339.382,853.105C340.378,853.105 341.038,853.445 341.362,854.125L341.456,854.125C341.648,853.804 341.917,853.554 342.265,853.375C342.612,853.195 343.011,853.105 343.46,853.105C344.234,853.105 344.797,853.301 345.15,853.691C345.504,854.082 345.681,854.677 345.681,855.478L345.681,859.703L344.304,859.703L344.304,855.707C344.304,855.211 344.209,854.841 344.02,854.596C343.83,854.352 343.536,854.23 343.138,854.23C342.603,854.23 342.211,854.397 341.963,854.731C341.715,855.065 341.591,855.578 341.591,856.269L341.591,859.703Z" style="fill:rgb(255,255,254);fill-rule:nonzero;"/>
            <path d="M350.433,859.82C349.425,859.82 348.637,859.526 348.068,858.938C347.5,858.35 347.216,857.541 347.216,856.51C347.216,855.451 347.48,854.619 348.007,854.013C348.534,853.408 349.259,853.105 350.181,853.105C351.036,853.105 351.712,853.365 352.208,853.885C352.704,854.404 352.952,855.119 352.952,856.029L352.952,856.773L348.634,856.773C348.653,857.402 348.823,857.885 349.144,858.223C349.464,858.561 349.915,858.73 350.497,858.73C350.88,858.73 351.236,858.694 351.567,858.622C351.897,858.55 352.251,858.429 352.63,858.261L352.63,859.381C352.294,859.541 351.954,859.654 351.61,859.72C351.267,859.787 350.874,859.82 350.433,859.82ZM350.181,854.148C349.743,854.148 349.393,854.287 349.129,854.564C348.865,854.842 348.708,855.246 348.657,855.777L351.599,855.777C351.591,855.242 351.462,854.837 351.212,854.561C350.962,854.286 350.618,854.148 350.181,854.148Z" style="fill:rgb(255,255,254);fill-rule:nonzero;"/>
        </g>
        <g transform="matrix(0.98,0,0,1,7.05501,0)">
            <path d="M358.898,859.703L354.216,859.703L354.216,851.136L358.898,851.136L358.898,851.687L354.814,851.687L354.814,854.927L358.669,854.927L358.669,855.478L354.814,855.478L354.814,859.152L358.898,859.152L358.898,859.703Z" style="fill:rgb(255,255,254);fill-rule:nonzero;"/>
            <path d="M363.023,853.211C363.484,853.211 363.882,853.295 364.218,853.463C364.554,853.631 364.855,853.918 365.121,854.324L365.156,854.324C365.132,853.832 365.121,853.349 365.121,852.877L365.121,850.586L365.695,850.586L365.695,859.703L365.314,859.703L365.167,858.73L365.121,858.73C364.636,859.457 363.941,859.82 363.035,859.82C362.156,859.82 361.484,859.547 361.019,859C360.554,858.453 360.322,857.656 360.322,856.609C360.322,855.508 360.552,854.666 361.013,854.084C361.474,853.502 362.144,853.211 363.023,853.211ZM363.023,853.738C362.328,853.738 361.805,853.982 361.455,854.47C361.106,854.959 360.931,855.668 360.931,856.597C360.931,858.402 361.632,859.304 363.035,859.304C363.753,859.304 364.281,859.095 364.617,858.677C364.953,858.26 365.121,857.57 365.121,856.609L365.121,856.51C365.121,855.525 364.955,854.817 364.625,854.385C364.295,853.954 363.761,853.738 363.023,853.738Z" style="fill:rgb(255,255,254);fill-rule:nonzero;"/>
            <path d="M368.414,859.703L367.833,859.703L367.833,853.334L368.414,853.334L368.414,859.703ZM367.751,851.564C367.751,851.189 367.874,851.002 368.121,851.002C368.242,851.002 368.336,851.051 368.405,851.148C368.473,851.246 368.507,851.385 368.507,851.564C368.507,851.74 368.473,851.879 368.405,851.98C368.336,852.082 368.242,852.133 368.121,852.133C367.874,852.133 367.751,851.943 367.751,851.564Z" style="fill:rgb(255,255,254);fill-rule:nonzero;"/>
            <g transform="matrix(1,0,0,1,7.10493,0)">
                <path d="M368.414,859.703L367.833,859.703L367.833,853.334L368.414,853.334L368.414,859.703ZM367.751,851.564C367.751,851.189 367.874,851.002 368.121,851.002C368.242,851.002 368.336,851.051 368.405,851.148C368.473,851.246 368.507,851.385 368.507,851.564C368.507,851.74 368.473,851.879 368.405,851.98C368.336,852.082 368.242,852.133 368.121,852.133C367.874,852.133 367.751,851.943 367.751,851.564Z" style="fill:rgb(255,255,254);fill-rule:nonzero;"/>
            </g>
            <path d="M372.228,859.304C372.595,859.304 372.915,859.273 373.189,859.211L373.189,859.679C372.908,859.773 372.583,859.82 372.216,859.82C371.654,859.82 371.239,859.67 370.971,859.369C370.704,859.068 370.57,858.595 370.57,857.951L370.57,853.838L369.626,853.838L369.626,853.498L370.57,853.234L370.863,851.793L371.162,851.793L371.162,853.334L373.031,853.334L373.031,853.838L371.162,853.838L371.162,857.869C371.162,858.357 371.247,858.719 371.419,858.953C371.591,859.187 371.861,859.304 372.228,859.304Z" style="fill:rgb(255,255,254);fill-rule:nonzero;"/>
            <g transform="matrix(1,0,0,1,2.8722,0)">
                <path d="M379.833,856.51C379.833,857.549 379.581,858.36 379.078,858.944C378.574,859.528 377.878,859.82 376.992,859.82C376.433,859.82 375.941,859.685 375.515,859.416C375.089,859.146 374.763,858.76 374.537,858.256C374.31,857.752 374.197,857.17 374.197,856.51C374.197,855.47 374.449,854.661 374.953,854.081C375.456,853.501 376.148,853.211 377.027,853.211C377.902,853.211 378.588,853.505 379.086,854.093C379.584,854.68 379.833,855.486 379.833,856.51ZM374.806,856.51C374.806,857.385 374.998,858.067 375.383,858.557C375.768,859.048 376.312,859.293 377.015,859.293C377.718,859.293 378.262,859.048 378.647,858.557C379.032,858.067 379.224,857.385 379.224,856.51C379.224,855.631 379.03,854.949 378.641,854.465C378.252,853.98 377.706,853.738 377.003,853.738C376.3,853.738 375.758,853.979 375.377,854.462C374.997,854.944 374.806,855.627 374.806,856.51Z" style="fill:rgb(255,255,254);fill-rule:nonzero;"/>
            </g>
            <g transform="matrix(1,0,0,1,2.8722,0)">
                <path d="M386.039,859.703L386.039,855.572C386.039,854.931 385.904,854.466 385.634,854.175C385.365,853.884 384.947,853.738 384.38,853.738C383.619,853.738 383.061,853.93 382.707,854.315C382.354,854.7 382.177,855.324 382.177,856.187L382.177,859.703L381.597,859.703L381.597,853.334L382.089,853.334L382.201,854.207L382.236,854.207C382.65,853.543 383.386,853.211 384.445,853.211C385.89,853.211 386.613,853.986 386.613,855.537L386.613,859.703L386.039,859.703Z" style="fill:rgb(255,255,254);fill-rule:nonzero;"/>
            </g>
        </g>
    </g>
</svg>
