<?xml version="1.0" encoding="UTF-8" standalone="no"?><!DOCTYPE svg PUBLIC "-//W3C//DTD SVG 1.1//EN" "http://www.w3.org/Graphics/SVG/1.1/DTD/svg11.dtd"><svg width="100%" height="100%" viewBox="0 0 157 40" version="1.1" xmlns="http://www.w3.org/2000/svg" xmlns:xlink="http://www.w3.org/1999/xlink" xml:space="preserve" xmlns:serif="http://www.serif.com/" style="fill-rule:evenodd;clip-rule:evenodd;stroke-linejoin:round;stroke-miterlimit:1.41421;"><g><g><g><path d="M146.571,0l-137.036,0c-0.367,0 -0.729,0 -1.095,0.002c-0.306,0.002 -0.61,0.008 -0.919,0.013c-0.671,0.008 -1.341,0.067 -2.004,0.176c-0.661,0.113 -1.302,0.324 -1.901,0.627c-0.597,0.306 -1.144,0.704 -1.618,1.179c-0.478,0.474 -0.876,1.021 -1.179,1.621c-0.304,0.599 -0.514,1.241 -0.625,1.903c-0.111,0.662 -0.171,1.332 -0.179,2.002c-0.009,0.307 -0.01,0.615 -0.015,0.921l0,23.115c0.005,0.31 0.006,0.611 0.015,0.921c0.008,0.671 0.068,1.341 0.179,2.002c0.11,0.663 0.321,1.306 0.625,1.905c0.303,0.598 0.701,1.143 1.179,1.614c0.473,0.477 1.019,0.875 1.618,1.179c0.599,0.304 1.239,0.517 1.901,0.63c0.663,0.109 1.333,0.168 2.004,0.177c0.309,0.007 0.613,0.011 0.919,0.011c0.366,0.002 0.728,0.002 1.095,0.002l137.036,0c0.36,0 0.725,0 1.084,-0.002c0.305,0 0.617,-0.004 0.922,-0.011c0.67,-0.008 1.339,-0.067 2,-0.177c0.664,-0.114 1.307,-0.327 1.908,-0.63c0.599,-0.304 1.145,-0.702 1.618,-1.179c0.476,-0.473 0.874,-1.018 1.181,-1.614c0.302,-0.6 0.511,-1.242 0.619,-1.905c0.112,-0.661 0.174,-1.331 0.186,-2.002c0.004,-0.31 0.004,-0.611 0.004,-0.921c0.008,-0.364 0.008,-0.725 0.008,-1.094l0,-20.929c0,-0.366 0,-0.729 -0.008,-1.092c0,-0.306 0,-0.614 -0.004,-0.921c-0.012,-0.671 -0.074,-1.34 -0.186,-2.002c-0.108,-0.662 -0.317,-1.304 -0.619,-1.903c-0.617,-1.203 -1.596,-2.182 -2.799,-2.8c-0.601,-0.302 -1.244,-0.514 -1.908,-0.627c-0.661,-0.11 -1.33,-0.169 -2,-0.176c-0.305,-0.005 -0.617,-0.011 -0.922,-0.013c-0.359,-0.002 -0.724,-0.002 -1.084,-0.002l0,0Z" style="fill:#a6a6a6;fill-rule:nonzero;"/><path d="M8.445,39.125c-0.305,0 -0.602,-0.004 -0.904,-0.011c-0.627,-0.008 -1.251,-0.062 -1.87,-0.163c-0.576,-0.099 -1.134,-0.284 -1.656,-0.548c-0.517,-0.261 -0.989,-0.605 -1.397,-1.016c-0.414,-0.407 -0.759,-0.879 -1.021,-1.397c-0.264,-0.521 -0.448,-1.08 -0.543,-1.657c-0.103,-0.62 -0.158,-1.247 -0.166,-1.875c-0.007,-0.211 -0.015,-0.913 -0.015,-0.913l0,-23.101c0,0 0.009,-0.691 0.015,-0.894c0.007,-0.628 0.063,-1.253 0.165,-1.872c0.096,-0.579 0.279,-1.139 0.544,-1.662c0.26,-0.518 0.603,-0.99 1.015,-1.398c0.411,-0.412 0.884,-0.757 1.402,-1.023c0.521,-0.263 1.078,-0.446 1.653,-0.544c0.621,-0.101 1.248,-0.156 1.876,-0.164l0.902,-0.012l139.205,0l0.913,0.013c0.623,0.007 1.244,0.061 1.859,0.162c0.581,0.099 1.144,0.284 1.671,0.548c1.037,0.535 1.882,1.381 2.415,2.42c0.26,0.52 0.441,1.076 0.535,1.649c0.104,0.624 0.162,1.255 0.174,1.887c0.003,0.283 0.003,0.588 0.003,0.89c0.008,0.375 0.008,0.732 0.008,1.092l0,20.929c0,0.363 0,0.718 -0.008,1.075c0,0.325 0,0.623 -0.004,0.93c-0.012,0.621 -0.069,1.24 -0.171,1.853c-0.093,0.581 -0.276,1.145 -0.54,1.67c-0.264,0.513 -0.607,0.98 -1.016,1.386c-0.408,0.414 -0.881,0.759 -1.399,1.022c-0.525,0.266 -1.088,0.452 -1.668,0.55c-0.618,0.101 -1.243,0.156 -1.869,0.163c-0.293,0.007 -0.6,0.011 -0.898,0.011l-1.084,0.002l-138.126,-0.002Z" style="fill-rule:nonzero;"/></g><g id="_Group_2_" serif:id="_Group_2"><g id="_Group_4_" serif:id="_Group_4"><path id="_Path_" d="M24.769,20.301c0.022,-1.695 0.913,-3.265 2.356,-4.152c-0.915,-1.307 -2.396,-2.108 -3.991,-2.158c-1.679,-0.176 -3.307,1.005 -4.163,1.005c-0.872,0 -2.189,-0.988 -3.608,-0.958c-1.865,0.06 -3.566,1.097 -4.473,2.727c-1.934,3.349 -0.491,8.27 1.361,10.977c0.927,1.325 2.01,2.805 3.428,2.753c1.387,-0.058 1.905,-0.885 3.579,-0.885c1.659,0 2.145,0.885 3.591,0.852c1.489,-0.025 2.426,-1.332 3.321,-2.67c0.666,-0.944 1.178,-1.988 1.518,-3.092c-1.764,-0.746 -2.917,-2.484 -2.919,-4.399Z" style="fill:#fff;fill-rule:nonzero;"/><path id="_Path_2_" serif:id="_Path_2" d="M22.037,12.211c0.811,-0.974 1.212,-2.227 1.115,-3.491c-1.24,0.13 -2.386,0.723 -3.208,1.66c-0.812,0.924 -1.223,2.134 -1.144,3.361c1.256,0.013 2.45,-0.552 3.237,-1.53Z" style="fill:#fff;fill-rule:nonzero;"/></g></g></g></g><text x="33.724px" y="14.053px" style="font-family:'ArialMT', 'Arial', sans-serif;font-size:12px;fill:#fff;">T<tspan x="40.609px 44.605px " y="14.053px 14.053px ">ry</tspan> now</text><g id="Ebene1"><text x="34.296px" y="30.297px" style="font-family:'ArialMT', 'Arial', sans-serif;font-size:16.349px;fill:#fff;">macOS V<tspan x="103.348px 112.44px " y="30.297px 30.297px ">er</tspan>sion</text></g></svg>